<svg xmlns="http://www.w3.org/2000/svg" viewBox="0 0 36 30"><defs><style>.cls-1{fill:#0c0b0b}</style></defs><title>bl7_icon3_</title><g id="Слой_2" data-name="Слой 2"><path class="cls-1" d="M15 21.25h-1.2v1.87H15zm2.4 0h-1.2v1.87h1.2zm2.4 0h-1.2v1.87h1.2zm2.4 0H21v1.87h1.2zM15 18.13h-1.2V20H15zm2.4 0h-1.2V20h1.2zm2.4 0h-1.2V20h1.2zm2.4 0H21V20h1.2zM15 15h-1.2v1.88H15zm2.4 0h-1.2v1.88h1.2zm2.4 0h-1.2v1.88h1.2zm2.4 0H21v1.88h1.2zM15 11.88h-1.2v1.87H15zm2.4 0h-1.2v1.87h1.2zm2.4 0h-1.2v1.87h1.2zm2.4 0H21v1.87h1.2zM15 8.75h-1.2v1.87H15zm2.4 0h-1.2v1.87h1.2zm2.4 0h-1.2v1.87h1.2zm2.4 0H21v1.87h1.2zM15 5.62h-1.2V7.5H15zm2.4 0h-1.2V7.5h1.2zm2.4 0h-1.2V7.5h1.2zm2.4 0H21V7.5h1.2zM15 2.5h-1.2v1.88H15zm2.4 0h-1.2v1.88h1.2zm2.4 0h-1.2v1.88h1.2zm2.4 0H21v1.88h1.2zm-12 21.88H9v1.88h1.2zm0-3.13H9v1.87h1.2zm0-3.13H9V20h1.2zm0-3.13H9v1.88h1.2zm0-3.12H9v1.87h1.2zm0-3.13H9v1.87h1.2zm0-3.13H9V7.5h1.2zM27 24.38h-1.2v1.88H27zm0-3.13h-1.2v1.87H27zm0-3.13h-1.2V20H27zM27 15h-1.2v1.88H27zm0-3.12h-1.2v1.87H27zm0-3.13h-1.2v1.87H27zm0-3.13h-1.2V7.5H27zm6.6 23.12v-8.11l1.4 1.12.72-1L34 19.38 35.76 18 35 17l-1.4 1.13v-1.88h-1.2v1.88L31 17l-.72 1L32 19.38l-1.76 1.38.72 1 1.44-1.13v8.13h-3v-25h1.2V2.5h-6V1.25h1.2V0H10.2v1.25h1.2V2.5h-6v1.25h1.2v25h-3v-8.12L5 21.75l.72-1L4 19.38 5.76 18 5 17l-1.4 1.12v-1.87H2.4v1.88L1 17l-.76 1L2 19.38.24 20.75l.72 1 1.44-1.12v8.12H0V30h36v-1.25zm-22.2 0H7.8v-25h3.6zm6 0h-1.8v-3.11h1.8zm3 0h-1.8v-3.11h1.8zm3-25.62v25.63h-1.8V25a.61.61 0 0 0-.6-.63h-6a.61.61 0 0 0-.6.63v3.75h-1.8V1.25h10.8zm4.8 25.62h-3.6v-25h3.6z" id="Слой_1-2" data-name="Слой 1"/></g></svg>