<svg xmlns="http://www.w3.org/2000/svg" viewBox="0 0 30 33"><defs><style>.cls-1{fill:#0c0b0b}</style></defs><title>bl7_icon2_</title><g id="Слой_2" data-name="Слой 2"><path class="cls-1" d="M29.44 31.89h-.93V2.78a.56.56 0 0 0-.51-.56H17.59a.56.56 0 0 0-.56.56v2.41h-1.1V2.78a.56.56 0 0 0-.56-.56H13V.56a.56.56 0 1 0-1.11 0v1.66H9.44a.56.56 0 0 0-.56.56v2.41H7.22a.56.56 0 0 0-.56.56v4.63H2a.56.56 0 0 0-.56.56v20.95H.56a.56.56 0 0 0 0 1.11h28.88a.56.56 0 0 0 0-1.11zM10 3.34h4.81v1.85H10zM8.15 31.89h-.37V31a.56.56 0 0 0-1.11 0v.93H6.3V30h1.85zm3.7-14.27v14.27H9.26v-2.41a.56.56 0 0 0-.56-.56h-3a.56.56 0 0 0-.56.56v2.41H2.59v-20.4h9.26zm.56-7.23H7.78V6.3H17v10.76h-4V15.2h1.67a.56.56 0 0 0 0-1.11H13v-1.85h1.67a.56.56 0 0 0 0-1.11H13v-.19a.56.56 0 0 0-.59-.56zm9.81 21.51H13V18.17h9.26zm5.19 0h-4.08v-15a.56.56 0 1 0-1.11 0v.19h-1.11v-.19a.56.56 0 1 0-1.11 0v.19h-1.85V3.34h9.26zm-12-1.11a.56.56 0 0 0 .56-.56V19.84a.56.56 0 1 0-1.11 0v10.38a.56.56 0 0 0 .51.56zm2.22 0a.56.56 0 0 0 .56-.56V19.84a.56.56 0 1 0-1.11 0v10.38a.56.56 0 0 0 .51.56zm2.22 0a.56.56 0 0 0 .56-.56V19.84a.56.56 0 1 0-1.11 0v10.38a.56.56 0 0 0 .51.56zM20.56 7a.56.56 0 0 0 .56-.56v-.69a.56.56 0 1 0-1.11 0v.74a.56.56 0 0 0 .55.51zm2.22 0a.56.56 0 0 0 .56-.56v-.69a.56.56 0 1 0-1.11 0v.74a.56.56 0 0 0 .55.51zM25 7a.56.56 0 0 0 .56-.56v-.69a.56.56 0 1 0-1.11 0v.74A.56.56 0 0 0 25 7zm-4.44 3.71a.56.56 0 0 0 .56-.56v-.69a.56.56 0 1 0-1.11 0v.74a.56.56 0 0 0 .55.55zm2.22 0a.56.56 0 0 0 .56-.56v-.69a.56.56 0 1 0-1.11 0v.74a.56.56 0 0 0 .55.55zm2.22 0a.56.56 0 0 0 .56-.56v-.69a.56.56 0 1 0-1.11 0v.74a.56.56 0 0 0 .55.55zm-4.44 3.71a.56.56 0 0 0 .56-.56v-.74a.56.56 0 1 0-1.11 0v.74a.56.56 0 0 0 .55.6zm2.22 0a.56.56 0 0 0 .56-.56v-.74a.56.56 0 1 0-1.11 0v.74a.56.56 0 0 0 .55.6zm2.22 0a.56.56 0 0 0 .56-.56v-.74a.56.56 0 1 0-1.11 0v.74a.56.56 0 0 0 .55.6zM5 15.94a.56.56 0 0 0 .56-.55v-.74a.56.56 0 1 0-1.11 0v.74a.56.56 0 0 0 .55.55zm2.22 0a.56.56 0 0 0 .56-.55v-.74a.56.56 0 1 0-1.11 0v.74a.56.56 0 0 0 .55.55zm2.22 0a.56.56 0 0 0 .56-.55v-.74a.56.56 0 1 0-1.11 0v.74a.56.56 0 0 0 .55.55zM5 19.65a.56.56 0 0 0 .56-.56v-.74a.56.56 0 1 0-1.11 0v.74a.56.56 0 0 0 .55.56zm2.22 0a.56.56 0 0 0 .56-.56v-.74a.56.56 0 0 0-1.11 0v.74a.56.56 0 0 0 .55.56zm2.22 0a.56.56 0 0 0 .56-.56v-.74a.56.56 0 1 0-1.11 0v.74a.56.56 0 0 0 .55.56zM5 23.36a.56.56 0 0 0 .56-.56v-.74a.56.56 0 1 0-1.11 0v.74a.56.56 0 0 0 .55.56zm2.22 0a.56.56 0 0 0 .56-.56v-.74a.56.56 0 1 0-1.11 0v.74a.56.56 0 0 0 .55.56zm2.22 0a.56.56 0 0 0 .56-.56v-.74a.56.56 0 1 0-1.11 0v.74a.56.56 0 0 0 .55.56zM5 27.07a.56.56 0 0 0 .56-.56v-.74a.56.56 0 1 0-1.11 0v.74a.56.56 0 0 0 .55.56zm2.22 0a.56.56 0 0 0 .56-.56v-.74a.56.56 0 1 0-1.11 0v.74a.56.56 0 0 0 .55.56zm2.22 0a.56.56 0 0 0 .56-.56v-.74a.56.56 0 1 0-1.11 0v.74a.56.56 0 0 0 .55.56zM25 18.17a.56.56 0 0 0 .56-.56v-.74a.56.56 0 1 0-1.11 0v.74a.56.56 0 0 0 .55.56zm0 3.71a.56.56 0 0 0 .56-.56v-.74a.56.56 0 1 0-1.11 0v.74a.56.56 0 0 0 .55.56zm0 3.71a.56.56 0 0 0 .56-.56v-.74a.56.56 0 1 0-1.11 0V25a.56.56 0 0 0 .55.58zm0 3.71a.56.56 0 0 0 .56-.56V28a.56.56 0 1 0-1.11 0v.74a.56.56 0 0 0 .55.55zM15.19 8.71a.56.56 0 0 0-.56-.56h-4.44a.56.56 0 0 0 0 1.11h4.44a.56.56 0 0 0 .56-.55z" id="Слой_1-2" data-name="Слой 1"/></g></svg>