<svg xmlns="http://www.w3.org/2000/svg" viewBox="0 0 36 36"><defs><style>.cls-1{fill:#0c0b0b}</style></defs><title>bl7_icon1_</title><g id="Слой_2" data-name="Слой 2"><path class="cls-1" d="M22.8 23.4a.6.6 0 0 0-1.2 0v1.2a.6.6 0 1 0 1.2 0zm-1.2 7.2V33a.6.6 0 0 0 1.2 0v-2.4a.6.6 0 0 0-1.2 0zm3.6-14.4a.6.6 0 0 0-1.2 0v1.2a.6.6 0 1 0 1.2 0zm-2.4 3.6a.6.6 0 0 0-1.2 0V21a.6.6 0 1 0 1.2 0zm0 7.2a.6.6 0 0 0-1.2 0v1.2a.6.6 0 0 0 1.2 0zm2.4-7.2a.6.6 0 0 0-1.2 0V21a.6.6 0 1 0 1.2 0zm-4.8-3.6a.6.6 0 0 0-1.2 0v1.2a.6.6 0 1 0 1.2 0zm2.4 0a.6.6 0 0 0-1.2 0v1.2a.6.6 0 1 0 1.2 0zm2.4-6V9A.6.6 0 1 0 24 9v1.2a.6.6 0 0 0 1.2 0zm-4.8 9.6a.6.6 0 0 0-1.2 0V21a.6.6 0 1 0 1.2 0zM27.6 9a.6.6 0 1 0-1.2 0v1.2a.6.6 0 0 0 1.2 0zm-7.8 13.8a.6.6 0 0 0-.6.6v1.2a.6.6 0 1 0 1.2 0v-1.2a.6.6 0 0 0-.6-.6zM30 27a.6.6 0 0 0-1.2 0v1.2a.6.6 0 0 0 1.2 0zm-1.2 3.6V33a.6.6 0 0 0 1.2 0v-2.4a.6.6 0 0 0-1.2 0zm3-7.8a.6.6 0 0 0-.6.6v1.2a.6.6 0 1 0 1.2 0v-1.2a.6.6 0 0 0-.6-.6zm-9.6-12a.6.6 0 0 0 .6-.6V7.67l6-1.5v10a.6.6 0 0 0 .39.56l4.41 1.65v6.22a.6.6 0 1 0 1.2 0V18a.6.6 0 0 0-.39-.56L30 15.78V4.2a.6.6 0 1 0-1.2 0v.73l-6.75 1.69a.6.6 0 0 0-.45.58v3a.6.6 0 0 0 .6.6zm10.2 9a.6.6 0 0 0-1.2 0V21a.6.6 0 1 0 1.2 0zm-2.4 0a.6.6 0 0 0-1.2 0V21a.6.6 0 1 0 1.2 0zM25.2 27a.6.6 0 0 0-1.2 0v1.2a.6.6 0 0 0 1.2 0zm4.8-3.6a.6.6 0 0 0-1.2 0v1.2a.6.6 0 1 0 1.2 0zM24.6 30a.6.6 0 0 0-.6.6V33a.6.6 0 0 0 1.2 0v-2.4a.6.6 0 0 0-.6-.6zm.6-6.6a.6.6 0 0 0-1.2 0v1.2a.6.6 0 1 0 1.2 0zM27 33.6a.6.6 0 0 0 .6-.6V13.8a.6.6 0 0 0-.45-.58l-9.6-2.4a.6.6 0 0 0-.75.58v13.2a.6.6 0 1 0 1.2 0V12.17l8.4 2.1V33a.6.6 0 0 0 .6.6zm-13.8-21a.6.6 0 1 0-1.2 0v1.2a.6.6 0 0 0 1.2 0zm0-3.6A.6.6 0 1 0 12 9v1.2a.6.6 0 0 0 1.2 0zM8.4 27a.6.6 0 0 0-1.2 0v1.2a.6.6 0 0 0 1.2 0zM3 21.6a.6.6 0 0 0 .6-.6v-3h6v15a.6.6 0 0 0 1.2 0V17.4a.6.6 0 0 0-.6-.6H3a.6.6 0 0 0-.6.6V21a.6.6 0 0 0 .6.6zm7.2-9.6a.6.6 0 0 0-.6.6v1.2a.6.6 0 0 0 1.2 0v-1.2a.6.6 0 0 0-.6-.6zm3-6.6a.6.6 0 1 0-1.2 0v1.2a.6.6 0 0 0 1.2 0zm-6 25.2V33a.6.6 0 0 0 1.2 0v-2.4a.6.6 0 0 0-1.2 0zm28.2 4.2h-1.2v-3.69a2.4 2.4 0 1 0-1.2 0v3.69H18v-2.46a3 3 0 1 0-1.2 0v2.46H3.6v-6.06a3 3 0 1 0-1.2 0v6.06H.6a.6.6 0 1 0 0 1.2h34.8a.6.6 0 1 0 0-1.2zm-34.2-9A1.8 1.8 0 1 1 3 27.6a1.8 1.8 0 0 1-1.8-1.8zm14.4 3.6a1.8 1.8 0 1 1 1.8 1.8 1.8 1.8 0 0 1-1.8-1.8zm16.8-.6a1.2 1.2 0 1 1 1.2 1.2 1.2 1.2 0 0 1-1.2-1.2zM4.8 30.6V33A.6.6 0 0 0 6 33v-2.4a.6.6 0 0 0-1.2 0zm3.6-10.8a.6.6 0 0 0-1.2 0V21a.6.6 0 1 0 1.2 0zm0 3.6a.6.6 0 0 0-1.2 0v1.2a.6.6 0 1 0 1.2 0zm-3.6-3.6V21A.6.6 0 1 0 6 21v-1.2a.6.6 0 0 0-1.2 0zm8.4 3.6a.6.6 0 0 0-1.2 0v1.2a.6.6 0 1 0 1.2 0zm2.4-7.2a.6.6 0 0 0-1.2 0v1.2a.6.6 0 1 0 1.2 0zm0-3.6a.6.6 0 1 0-1.2 0v1.2a.6.6 0 0 0 1.2 0zm0 7.2a.6.6 0 0 0-1.2 0V21a.6.6 0 1 0 1.2 0zm-.6 3a.6.6 0 0 0-.6.6v1.2a.6.6 0 1 0 1.2 0v-1.2a.6.6 0 0 0-.6-.6zM15.6 9a.6.6 0 1 0-1.2 0v1.2a.6.6 0 0 0 1.2 0zm-2.4 18a.6.6 0 0 0-1.2 0v1.2a.6.6 0 0 0 1.2 0zM7.8 15.6a.6.6 0 0 0 .6-.6v-4.43l2.07-1A.6.6 0 0 0 10.8 9V4l3-1.5 3 1.5v5A.6.6 0 0 0 18 9V3.6a.6.6 0 0 0-.33-.54L14.4 1.43V.6a.6.6 0 0 0-1.2 0v.83L9.93 3.06a.6.6 0 0 0-.33.54v5l-2.07 1a.6.6 0 0 0-.33.54V15a.6.6 0 0 0 .6.6zm5.4 4.2a.6.6 0 0 0-1.2 0V21a.6.6 0 1 0 1.2 0zM12.6 30a.6.6 0 0 0-.6.6V33a.6.6 0 0 0 1.2 0v-2.4a.6.6 0 0 0-.6-.6zm3-24.6a.6.6 0 1 0-1.2 0v1.2a.6.6 0 0 0 1.2 0zm-2.4 10.8a.6.6 0 0 0-1.2 0v1.2a.6.6 0 1 0 1.2 0z" id="Слой_1-2" data-name="Слой 1"/></g></svg>