<svg xmlns="http://www.w3.org/2000/svg" viewBox="0 0 140.99 20.17"><defs><style>.cls-1{fill:#0c0b0b}</style></defs><title>Logo_landscapes_</title><g id="Слой_2" data-name="Слой 2"><path class="cls-1" d="M12.88 0H3v2H0v17.73h5.94v-2h4v2h5.94V2h-3zM6.93 14.8H5v-2h2zm0-3.95H5v-2h2zm0-3.95H5v-2h2zm4 7.89h-2v-2h2zm0-3.95h-2v-2h2zm0-3.95h-2v-2h2zM28 8.31h-2.81V20h7.87v-2.09H28zm10.72 0L34.84 20h2.77l.67-2.27H42l.7 2.27h2.77L41.63 8.31zm.22 7.33l1.23-4.18 1.24 4.18zm15.9.1L50.4 8.31h-2.76V20h2.76v-7.43L54.79 20h2.76V8.31h-2.76zM65 8.31h-4.27V20H65a4.88 4.88 0 0 0 3.5-1.34 4.55 4.55 0 0 0 1.41-3.45V13.1a4.56 4.56 0 0 0-1.41-3.45A4.88 4.88 0 0 0 65 8.31zm2.15 6.9a3 3 0 0 1-.62 2 2.12 2.12 0 0 1-1.72.74H63.5V10.4h1.34a2.12 2.12 0 0 1 1.72.74 2.94 2.94 0 0 1 .62 2zM78 13a9.61 9.61 0 0 1-1.78-.77.94.94 0 0 1-.48-.82 1.09 1.09 0 0 1 .47-.89 2.09 2.09 0 0 1 1.3-.36 1.89 1.89 0 0 1 1.32.44 1.47 1.47 0 0 1 .48 1.14H82v-.1a3 3 0 0 0-1.22-2.47 5.08 5.08 0 0 0-3.23-1 5.59 5.59 0 0 0-3.28.91 2.78 2.78 0 0 0-1.29 2.38A2.69 2.69 0 0 0 74 13.74a11.67 11.67 0 0 0 3.34 1.5 5.32 5.32 0 0 1 1.49.71 1.16 1.16 0 0 1 .41 1 1.08 1.08 0 0 1-.42.88 2 2 0 0 1-1.27.34 2.69 2.69 0 0 1-1.68-.43 1.73 1.73 0 0 1-.55-1.45h-2.65v.1a3.15 3.15 0 0 0 1.43 2.77 6.14 6.14 0 0 0 3.5 1 5.44 5.44 0 0 0 3.23-.87 2.8 2.8 0 0 0 1.17-2.4 3 3 0 0 0-1-2.38A8.41 8.41 0 0 0 78 13zm11.36-4.9a4.64 4.64 0 0 0-3.44 1.34 4.7 4.7 0 0 0-1.32 3.46v2.44a4.6 4.6 0 0 0 1.38 3.46 4.93 4.93 0 0 0 3.58 1.33 4.66 4.66 0 0 0 3.32-1.08 4.37 4.37 0 0 0 1.23-3.14h-2.72a2.92 2.92 0 0 1-.47 1.66 1.7 1.7 0 0 1-1.41.52 1.93 1.93 0 0 1-1.61-.75 3.08 3.08 0 0 1-.59-2v-2.42a3.25 3.25 0 0 1 .55-1.92 1.72 1.72 0 0 1 1.47-.74 1.93 1.93 0 0 1 1.56.55 2.85 2.85 0 0 1 .52 1.69h2.66a4.66 4.66 0 0 0-1.34-3.17 4.79 4.79 0 0 0-3.4-1.19zm10.52.17L96 20h2.77l.67-2.27h3.74l.68 2.27h2.77L102.8 8.31zm.22 7.33l1.23-4.18 1.24 4.18zm13.57-7.33h-4.82V20h2.76v-4h2.06a5 5 0 0 0 3.33-1.06 3.48 3.48 0 0 0 1.24-2.78A3.49 3.49 0 0 0 117 9.38a5 5 0 0 0-3.37-1.07zm1.33 5.15a1.81 1.81 0 0 1-1.36.49h-2.05V10.4h2.05a1.67 1.67 0 0 1 1.83 1.77 1.72 1.72 0 0 1-.47 1.25zm6.1 6.58h8.24v-2.09h-5.48V15h4.65v-2.09h-4.65V10.4h5.5V8.31h-8.26zm18.9-5.5a8.41 8.41 0 0 0-3-1.46 9.61 9.61 0 0 1-1.78-.77.94.94 0 0 1-.48-.82 1.09 1.09 0 0 1 .47-.89 2.09 2.09 0 0 1 1.3-.36 1.89 1.89 0 0 1 1.32.44 1.47 1.47 0 0 1 .48 1.14h2.68v-.1a3 3 0 0 0-1.22-2.47 5.08 5.08 0 0 0-3.23-1 5.59 5.59 0 0 0-3.28.91 2.78 2.78 0 0 0-1.29 2.38 2.69 2.69 0 0 0 1.03 2.24 11.68 11.68 0 0 0 3.34 1.5 5.32 5.32 0 0 1 1.49.71 1.16 1.16 0 0 1 .41 1 1.08 1.08 0 0 1-.42.88 2 2 0 0 1-1.27.34 2.69 2.69 0 0 1-1.68-.43 1.73 1.73 0 0 1-.55-1.45h-2.68v.1a3.15 3.15 0 0 0 1.36 2.78 6.14 6.14 0 0 0 3.5 1 5.44 5.44 0 0 0 3.23-.87 2.8 2.8 0 0 0 1.27-2.41 3 3 0 0 0-1-2.39z" id="Слой_1-2" data-name="Слой 1"/></g></svg>