<svg xmlns="http://www.w3.org/2000/svg" viewBox="0 0 30 33"><defs><style>.cls-1{fill:#0c0b0b;}</style></defs><title>bl7_icon2_</title><g id="Слой_2" data-name="Слой 2"><g id="Слой_1-2" data-name="Слой 1"><path class="cls-1" d="M29.44,31.89h-.93V2.78A.56.56,0,0,0,28,2.22H17.59a.56.56,0,0,0-.56.56V5.19H15.93V2.78a.56.56,0,0,0-.56-.56H13V.56a.56.56,0,1,0-1.11,0V2.22H9.44a.56.56,0,0,0-.56.56V5.19H7.22a.56.56,0,0,0-.56.56v4.63H2a.56.56,0,0,0-.56.56V31.89H.56A.56.56,0,0,0,.56,33H29.44a.56.56,0,0,0,0-1.11ZM10,3.34h4.81V5.19H10ZM8.15,31.89H7.78V31a.56.56,0,0,0-1.11,0v.93H6.3V30H8.15Zm3.7-14.27V31.89H9.26V29.48a.56.56,0,0,0-.56-.56h-3a.56.56,0,0,0-.56.56v2.41H2.59V11.49h9.26Zm.56-7.23H7.78V6.3H17V17.06H13V15.2h1.67a.56.56,0,0,0,0-1.11H13V12.24h1.67a.56.56,0,0,0,0-1.11H13v-.19A.56.56,0,0,0,12.41,10.38Zm9.81,21.51H13V18.17h9.26Zm5.19,0H23.33v-15a.56.56,0,1,0-1.11,0v.19H21.11v-.19a.56.56,0,1,0-1.11,0v.19H18.15V3.34h9.26Zm-12-1.11a.56.56,0,0,0,.56-.56V19.84a.56.56,0,1,0-1.11,0V30.22A.56.56,0,0,0,15.37,30.78Zm2.22,0a.56.56,0,0,0,.56-.56V19.84a.56.56,0,1,0-1.11,0V30.22A.56.56,0,0,0,17.59,30.78Zm2.22,0a.56.56,0,0,0,.56-.56V19.84a.56.56,0,1,0-1.11,0V30.22A.56.56,0,0,0,19.81,30.78ZM20.56,7a.56.56,0,0,0,.56-.56V5.75a.56.56,0,1,0-1.11,0v.74A.56.56,0,0,0,20.56,7Zm2.22,0a.56.56,0,0,0,.56-.56V5.75a.56.56,0,1,0-1.11,0v.74A.56.56,0,0,0,22.78,7ZM25,7a.56.56,0,0,0,.56-.56V5.75a.56.56,0,1,0-1.11,0v.74A.56.56,0,0,0,25,7Zm-4.44,3.71a.56.56,0,0,0,.56-.56V9.46a.56.56,0,1,0-1.11,0v.74A.56.56,0,0,0,20.56,10.75Zm2.22,0a.56.56,0,0,0,.56-.56V9.46a.56.56,0,1,0-1.11,0v.74A.56.56,0,0,0,22.78,10.75Zm2.22,0a.56.56,0,0,0,.56-.56V9.46a.56.56,0,1,0-1.11,0v.74A.56.56,0,0,0,25,10.75Zm-4.44,3.71a.56.56,0,0,0,.56-.56v-.74a.56.56,0,1,0-1.11,0v.74A.56.56,0,0,0,20.56,14.46Zm2.22,0a.56.56,0,0,0,.56-.56v-.74a.56.56,0,1,0-1.11,0v.74A.56.56,0,0,0,22.78,14.46Zm2.22,0a.56.56,0,0,0,.56-.56v-.74a.56.56,0,1,0-1.11,0v.74A.56.56,0,0,0,25,14.46ZM5,15.94a.56.56,0,0,0,.56-.55v-.74a.56.56,0,1,0-1.11,0v.74A.56.56,0,0,0,5,15.94Zm2.22,0a.56.56,0,0,0,.56-.55v-.74a.56.56,0,1,0-1.11,0v.74A.56.56,0,0,0,7.22,15.94Zm2.22,0a.56.56,0,0,0,.56-.55v-.74a.56.56,0,1,0-1.11,0v.74A.56.56,0,0,0,9.44,15.94ZM5,19.65a.56.56,0,0,0,.56-.56v-.74a.56.56,0,1,0-1.11,0v.74A.56.56,0,0,0,5,19.65Zm2.22,0a.56.56,0,0,0,.56-.56v-.74a.56.56,0,0,0-1.11,0v.74A.56.56,0,0,0,7.22,19.65Zm2.22,0a.56.56,0,0,0,.56-.56v-.74a.56.56,0,1,0-1.11,0v.74A.56.56,0,0,0,9.44,19.65ZM5,23.36a.56.56,0,0,0,.56-.56v-.74a.56.56,0,1,0-1.11,0v.74A.56.56,0,0,0,5,23.36Zm2.22,0a.56.56,0,0,0,.56-.56v-.74a.56.56,0,1,0-1.11,0v.74A.56.56,0,0,0,7.22,23.36Zm2.22,0A.56.56,0,0,0,10,22.8v-.74a.56.56,0,1,0-1.11,0v.74A.56.56,0,0,0,9.44,23.36ZM5,27.07a.56.56,0,0,0,.56-.56v-.74a.56.56,0,1,0-1.11,0v.74A.56.56,0,0,0,5,27.07Zm2.22,0a.56.56,0,0,0,.56-.56v-.74a.56.56,0,1,0-1.11,0v.74A.56.56,0,0,0,7.22,27.07Zm2.22,0a.56.56,0,0,0,.56-.56v-.74a.56.56,0,1,0-1.11,0v.74A.56.56,0,0,0,9.44,27.07ZM25,18.17a.56.56,0,0,0,.56-.56v-.74a.56.56,0,1,0-1.11,0v.74A.56.56,0,0,0,25,18.17Zm0,3.71a.56.56,0,0,0,.56-.56v-.74a.56.56,0,1,0-1.11,0v.74A.56.56,0,0,0,25,21.88Zm0,3.71a.56.56,0,0,0,.56-.56v-.74a.56.56,0,1,0-1.11,0V25A.56.56,0,0,0,25,25.58Zm0,3.71a.56.56,0,0,0,.56-.56V28a.56.56,0,1,0-1.11,0v.74A.56.56,0,0,0,25,29.29ZM15.19,8.71a.56.56,0,0,0-.56-.56H10.19a.56.56,0,0,0,0,1.11h4.44A.56.56,0,0,0,15.19,8.71Z"/></g></g></svg>