<svg xmlns="http://www.w3.org/2000/svg" viewBox="0 0 36 36"><defs><style>.cls-1{fill:#0c0b0b;}</style></defs><title>bl7_icon1_</title><g id="Слой_2" data-name="Слой 2"><g id="Слой_1-2" data-name="Слой 1"><path class="cls-1" d="M22.8,23.4a.6.6,0,0,0-1.2,0v1.2a.6.6,0,1,0,1.2,0Zm-1.2,7.2V33a.6.6,0,0,0,1.2,0V30.6a.6.6,0,0,0-1.2,0Zm3.6-14.4a.6.6,0,0,0-1.2,0v1.2a.6.6,0,1,0,1.2,0Zm-2.4,3.6a.6.6,0,0,0-1.2,0V21a.6.6,0,1,0,1.2,0Zm0,7.2h0a.6.6,0,0,0-1.2,0v1.2a.6.6,0,0,0,1.2,0Zm2.4-7.2a.6.6,0,0,0-1.2,0V21a.6.6,0,1,0,1.2,0Zm-4.8-3.6a.6.6,0,0,0-1.2,0v1.2a.6.6,0,1,0,1.2,0Zm2.4,0a.6.6,0,0,0-1.2,0v1.2a.6.6,0,1,0,1.2,0Zm2.4-6V9A.6.6,0,1,0,24,9v1.2a.6.6,0,0,0,1.2,0Zm-4.8,9.6a.6.6,0,0,0-1.2,0V21a.6.6,0,1,0,1.2,0ZM27.6,9a.6.6,0,1,0-1.2,0v1.2a.6.6,0,0,0,1.2,0ZM19.8,22.8a.6.6,0,0,0-.6.6v1.2a.6.6,0,1,0,1.2,0V23.4A.6.6,0,0,0,19.8,22.8ZM30,27h0a.6.6,0,0,0-1.2,0v1.2a.6.6,0,0,0,1.2,0Zm-1.2,3.6V33A.6.6,0,0,0,30,33V30.6a.6.6,0,0,0-1.2,0Zm3-7.8a.6.6,0,0,0-.6.6v1.2a.6.6,0,1,0,1.2,0V23.4A.6.6,0,0,0,31.8,22.8Zm-9.6-12a.6.6,0,0,0,.6-.6V7.67l6-1.5v10a.6.6,0,0,0,.39.56l4.41,1.65V24.6a.6.6,0,1,0,1.2,0V18a.6.6,0,0,0-.39-.56L30,15.78V4.2a.6.6,0,1,0-1.2,0v.73L22.05,6.62a.6.6,0,0,0-.45.58v3A.6.6,0,0,0,22.2,10.8Zm10.2,9a.6.6,0,0,0-1.2,0V21a.6.6,0,1,0,1.2,0Zm-2.4,0a.6.6,0,0,0-1.2,0V21A.6.6,0,1,0,30,21ZM25.2,27A.6.6,0,0,0,24,27v1.2a.6.6,0,0,0,1.2,0ZM30,23.4a.6.6,0,0,0-1.2,0v1.2a.6.6,0,1,0,1.2,0ZM24.6,30a.6.6,0,0,0-.6.6V33a.6.6,0,0,0,1.2,0V30.6A.6.6,0,0,0,24.6,30Zm.6-6.6a.6.6,0,0,0-1.2,0v1.2a.6.6,0,1,0,1.2,0ZM27,33.6a.6.6,0,0,0,.6-.6V13.8a.6.6,0,0,0-.45-.58l-9.6-2.4a.6.6,0,0,0-.75.58V24.6a.6.6,0,1,0,1.2,0V12.17l8.4,2.1V33A.6.6,0,0,0,27,33.6Zm-13.8-21a.6.6,0,1,0-1.2,0v1.2a.6.6,0,0,0,1.2,0Zm0-3.6A.6.6,0,1,0,12,9v1.2a.6.6,0,0,0,1.2,0ZM8.4,27h0a.6.6,0,0,0-1.2,0v1.2a.6.6,0,0,0,1.2,0ZM3,21.6a.6.6,0,0,0,.6-.6V18h6V33a.6.6,0,0,0,1.2,0V17.4a.6.6,0,0,0-.6-.6H3a.6.6,0,0,0-.6.6V21A.6.6,0,0,0,3,21.6ZM10.2,12a.6.6,0,0,0-.6.6v1.2a.6.6,0,0,0,1.2,0V12.6A.6.6,0,0,0,10.2,12Zm3-6.6a.6.6,0,1,0-1.2,0V6.6a.6.6,0,0,0,1.2,0Zm-6,25.2V33a.6.6,0,0,0,1.2,0V30.6a.6.6,0,0,0-1.2,0Zm28.2,4.2H34.2V31.11a2.4,2.4,0,1,0-1.2,0V34.8H18V32.34a3,3,0,1,0-1.2,0V34.8H3.6V28.74a3,3,0,1,0-1.2,0V34.8H.6A.6.6,0,1,0,.6,36H35.4a.6.6,0,1,0,0-1.2Zm-34.2-9A1.8,1.8,0,1,1,3,27.6,1.8,1.8,0,0,1,1.2,25.8Zm14.4,3.6a1.8,1.8,0,1,1,1.8,1.8A1.8,1.8,0,0,1,15.6,29.4Zm16.8-.6A1.2,1.2,0,1,1,33.6,30,1.2,1.2,0,0,1,32.4,28.8ZM4.8,30.6V33A.6.6,0,0,0,6,33V30.6a.6.6,0,0,0-1.2,0ZM8.4,19.8a.6.6,0,0,0-1.2,0V21a.6.6,0,1,0,1.2,0Zm0,3.6a.6.6,0,0,0-1.2,0v1.2a.6.6,0,1,0,1.2,0ZM4.8,19.8V21A.6.6,0,1,0,6,21V19.8a.6.6,0,0,0-1.2,0Zm8.4,3.6a.6.6,0,0,0-1.2,0v1.2a.6.6,0,1,0,1.2,0Zm2.4-7.2a.6.6,0,0,0-1.2,0v1.2a.6.6,0,1,0,1.2,0Zm0-3.6a.6.6,0,1,0-1.2,0v1.2a.6.6,0,0,0,1.2,0Zm0,7.2a.6.6,0,0,0-1.2,0V21a.6.6,0,1,0,1.2,0Zm-.6,3a.6.6,0,0,0-.6.6v1.2a.6.6,0,1,0,1.2,0V23.4A.6.6,0,0,0,15,22.8ZM15.6,9a.6.6,0,1,0-1.2,0v1.2a.6.6,0,0,0,1.2,0ZM13.2,27A.6.6,0,0,0,12,27v1.2a.6.6,0,0,0,1.2,0ZM7.8,15.6a.6.6,0,0,0,.6-.6V10.57l2.07-1A.6.6,0,0,0,10.8,9V4l3-1.5,3,1.5V9A.6.6,0,0,0,18,9V3.6a.6.6,0,0,0-.33-.54L14.4,1.43V.6a.6.6,0,0,0-1.2,0v.83L9.93,3.06a.6.6,0,0,0-.33.54v5l-2.07,1a.6.6,0,0,0-.33.54V15A.6.6,0,0,0,7.8,15.6Zm5.4,4.2a.6.6,0,0,0-1.2,0V21a.6.6,0,1,0,1.2,0ZM12.6,30a.6.6,0,0,0-.6.6V33a.6.6,0,0,0,1.2,0V30.6A.6.6,0,0,0,12.6,30Zm3-24.6a.6.6,0,1,0-1.2,0V6.6a.6.6,0,0,0,1.2,0ZM13.2,16.2a.6.6,0,0,0-1.2,0v1.2a.6.6,0,1,0,1.2,0Z"/></g></g></svg>