<svg xmlns="http://www.w3.org/2000/svg" viewBox="0 0 36 30"><defs><style>.cls-1{fill:#0c0b0b;}</style></defs><title>bl7_icon3_</title><g id="Слой_2" data-name="Слой 2"><g id="Слой_1-2" data-name="Слой 1"><path class="cls-1" d="M15,21.25H13.8v1.87H15Zm2.4,0H16.2v1.87h1.2Zm2.4,0H18.6v1.87h1.2Zm2.4,0H21v1.87h1.2ZM15,18.13H13.8V20H15Zm2.4,0H16.2V20h1.2Zm2.4,0H18.6V20h1.2Zm2.4,0H21V20h1.2ZM15,15H13.8v1.88H15Zm2.4,0H16.2v1.88h1.2Zm2.4,0H18.6v1.88h1.2Zm2.4,0H21v1.88h1.2ZM15,11.88H13.8v1.87H15Zm2.4,0H16.2v1.87h1.2Zm2.4,0H18.6v1.87h1.2Zm2.4,0H21v1.87h1.2ZM15,8.75H13.8v1.87H15Zm2.4,0H16.2v1.87h1.2Zm2.4,0H18.6v1.87h1.2Zm2.4,0H21v1.87h1.2ZM15,5.62H13.8V7.5H15Zm2.4,0H16.2V7.5h1.2Zm2.4,0H18.6V7.5h1.2Zm2.4,0H21V7.5h1.2ZM15,2.5H13.8V4.38H15Zm2.4,0H16.2V4.38h1.2Zm2.4,0H18.6V4.38h1.2Zm2.4,0H21V4.38h1.2Zm-12,21.88H9v1.88h1.2Zm0-3.13H9v1.87h1.2Zm0-3.13H9V20h1.2Zm0-3.13H9v1.88h1.2Zm0-3.12H9v1.87h1.2Zm0-3.13H9v1.87h1.2Zm0-3.13H9V7.5h1.2ZM27,24.38H25.8v1.88H27Zm0-3.13H25.8v1.87H27Zm0-3.13H25.8V20H27ZM27,15H25.8v1.88H27Zm0-3.12H25.8v1.87H27Zm0-3.13H25.8v1.87H27Zm0-3.13H25.8V7.5H27Zm6.6,23.12V20.63L35,21.75l.72-1L34,19.38,35.76,18,35,17,33.6,18.13V16.25H32.4v1.88L31,17l-.72,1L32,19.38l-1.76,1.38.72,1,1.44-1.13v8.13h-3v-25h1.2V2.5h-6V1.25h1.2V0H10.2V1.25h1.2V2.5h-6V3.75H6.6v25h-3V20.63L5,21.75l.72-1L4,19.38,5.76,18,5,17,3.6,18.12V16.25H2.4v1.88L1,17,.24,18,2,19.38.24,20.75l.72,1L2.4,20.63v8.12H0V30H36V28.75Zm-22.2,0H7.8v-25h3.6Zm6,0H15.6V25.63h1.8Zm3,0H18.6V25.63h1.8Zm3-25.62V28.75H21.6V25a.61.61,0,0,0-.6-.63H15a.61.61,0,0,0-.6.63v3.75H12.6V1.25H23.4Zm4.8,25.62H24.6v-25h3.6Z"/></g></g></svg>