<svg xmlns="http://www.w3.org/2000/svg" viewBox="0 0 13 13"><defs><style>.cls-1{fill:#0c0b0b;}</style></defs><title>call_icon_</title><g id="Слой_2" data-name="Слой 2"><g id="Слой_1-2" data-name="Слой 1"><path class="cls-1" d="M10.93,8.13a1,1,0,0,0-1.52,0L8.35,9.2a.21.21,0,0,1-.29.05c-.23-.13-.48-.23-.7-.37A11.07,11.07,0,0,1,4.69,6.46a6.3,6.3,0,0,1-1-1.53.22.22,0,0,1,.05-.28c.36-.34.7-.7,1.05-1.05A1,1,0,0,0,4.84,2L4,1.2,3.15.34a1,1,0,0,0-1.52,0C1.26.7.92,1.06.56,1.41A1.74,1.74,0,0,0,0,2.58,5,5,0,0,0,.39,4.71a13,13,0,0,0,2.3,3.83,14.25,14.25,0,0,0,4.72,3.69A6.81,6.81,0,0,0,10,13a1.91,1.91,0,0,0,1.64-.63c.31-.34.65-.65,1-1a1,1,0,0,0,0-1.55Z"/></g></g></svg>