<svg xmlns="http://www.w3.org/2000/svg" viewBox="0 0 140.99 20.17"><defs><style>.cls-1{fill:#0c0b0b;}</style></defs><title>Logo_landscapes_</title><g id="Слой_2" data-name="Слой 2"><g id="Слой_1-2" data-name="Слой 1"><path class="cls-1" d="M12.88,0H3V2H0V19.73H5.94v-2h4v2h5.94V2h-3ZM6.93,14.8H5v-2h2Zm0-3.95H5v-2h2Zm0-3.95H5v-2h2Zm4,7.89h-2v-2h2Zm0-3.95h-2v-2h2Zm0-3.95h-2v-2h2ZM28,8.31H25.19V20h7.87V17.91H28Zm10.72,0L34.84,20h2.77l.67-2.27H42L42.7,20h2.77L41.63,8.31Zm.22,7.33,1.23-4.18h0l1.24,4.18Zm15.9.1,0,0L50.4,8.31H47.64V20H50.4V12.57l0,0L54.79,20h2.76V8.31H54.79ZM65,8.31H60.73V20H65a4.88,4.88,0,0,0,3.5-1.34,4.55,4.55,0,0,0,1.41-3.45V13.1a4.56,4.56,0,0,0-1.41-3.45A4.88,4.88,0,0,0,65,8.31Zm2.15,6.9a3,3,0,0,1-.62,2,2.12,2.12,0,0,1-1.72.74H63.5V10.4h1.34a2.12,2.12,0,0,1,1.72.74,2.94,2.94,0,0,1,.62,2ZM78,13a9.61,9.61,0,0,1-1.78-.77.94.94,0,0,1-.48-.82,1.09,1.09,0,0,1,.47-.89,2.09,2.09,0,0,1,1.3-.36,1.89,1.89,0,0,1,1.32.44,1.47,1.47,0,0,1,.48,1.14H82l0,0v-.1a3,3,0,0,0-1.22-2.47,5.08,5.08,0,0,0-3.23-1,5.59,5.59,0,0,0-3.28.91,2.78,2.78,0,0,0-1.29,2.38A2.69,2.69,0,0,0,74,13.74a11.67,11.67,0,0,0,3.34,1.5,5.32,5.32,0,0,1,1.49.71,1.16,1.16,0,0,1,.41,1,1.08,1.08,0,0,1-.42.88,2,2,0,0,1-1.27.34,2.69,2.69,0,0,1-1.68-.43,1.73,1.73,0,0,1-.55-1.45H72.67l0,0v.1a3.15,3.15,0,0,0,1.43,2.77,6.14,6.14,0,0,0,3.5,1,5.44,5.44,0,0,0,3.23-.87A2.8,2.8,0,0,0,82,16.89a3,3,0,0,0-1-2.38A8.41,8.41,0,0,0,78,13Zm11.36-4.9a4.64,4.64,0,0,0-3.44,1.34,4.7,4.7,0,0,0-1.32,3.46v2.44a4.6,4.6,0,0,0,1.38,3.46,4.93,4.93,0,0,0,3.58,1.33,4.66,4.66,0,0,0,3.32-1.08,4.37,4.37,0,0,0,1.23-3.14l0,0H91.39a2.92,2.92,0,0,1-.47,1.66,1.7,1.7,0,0,1-1.41.52,1.93,1.93,0,0,1-1.61-.75,3.08,3.08,0,0,1-.59-2V12.92A3.25,3.25,0,0,1,87.86,11a1.72,1.72,0,0,1,1.47-.74,1.93,1.93,0,0,1,1.56.55,2.85,2.85,0,0,1,.52,1.69h2.66l0,0a4.66,4.66,0,0,0-1.34-3.17A4.79,4.79,0,0,0,89.33,8.14Zm10.52.17L96,20h2.77l.67-2.27h3.74l.68,2.27h2.77L102.8,8.31Zm.22,7.33,1.23-4.18h0l1.24,4.18Zm13.57-7.33h-4.82V20h2.76V16h2.06A5,5,0,0,0,117,14.94a3.48,3.48,0,0,0,1.24-2.78A3.49,3.49,0,0,0,117,9.38,5,5,0,0,0,113.63,8.31ZM115,13.42a1.81,1.81,0,0,1-1.36.49h-2.05V10.4h2.05a1.67,1.67,0,0,1,1.83,1.77A1.72,1.72,0,0,1,115,13.42ZM121.1,20h8.24V17.91h-5.48V15h4.65V12.91h-4.65V10.4h5.5V8.31H121.1ZM140,14.5a8.41,8.41,0,0,0-3-1.46,9.61,9.61,0,0,1-1.78-.77.94.94,0,0,1-.48-.82,1.09,1.09,0,0,1,.47-.89,2.09,2.09,0,0,1,1.3-.36,1.89,1.89,0,0,1,1.32.44,1.47,1.47,0,0,1,.48,1.14h2.68l0,0v-.1a3,3,0,0,0-1.22-2.47,5.08,5.08,0,0,0-3.23-1,5.59,5.59,0,0,0-3.28.91,2.78,2.78,0,0,0-1.29,2.38A2.69,2.69,0,0,0,133,13.74a11.68,11.68,0,0,0,3.34,1.5,5.32,5.32,0,0,1,1.49.71,1.16,1.16,0,0,1,.41,1,1.08,1.08,0,0,1-.42.88,2,2,0,0,1-1.27.34,2.69,2.69,0,0,1-1.68-.43,1.73,1.73,0,0,1-.55-1.45h-2.68l0,0v.1A3.15,3.15,0,0,0,133,19.17a6.14,6.14,0,0,0,3.5,1,5.44,5.44,0,0,0,3.23-.87A2.8,2.8,0,0,0,141,16.89,3,3,0,0,0,140,14.5Z"/></g></g></svg>